<mxfile host="app.diagrams.net" modified="2023-04-04T11:01:30.864Z" agent="5.0 (Macintosh; Intel Mac OS X 10_15_7) AppleWebKit/537.36 (KHTML, like Gecko) Chrome/111.0.0.0 Safari/537.36" etag="4ajNvyFNEoPulpeaHKSQ" version="21.0.6" type="github">
  <diagram id="rbuZzzbCmZzJuvFuw2tD" name="第 1 页">
    <mxGraphModel dx="1026" dy="661" grid="1" gridSize="10" guides="1" tooltips="1" connect="1" arrows="1" fold="1" page="1" pageScale="1" pageWidth="827" pageHeight="1169" math="0" shadow="0">
      <root>
        <mxCell id="0" />
        <mxCell id="1" parent="0" />
        <mxCell id="9UE20e8sKSjLi7E5Lzt2-1" value="client" style="aspect=fixed;perimeter=ellipsePerimeter;html=1;align=center;shadow=0;dashed=0;spacingTop=3;image;image=img/lib/active_directory/home_page.svg;" parent="1" vertex="1">
          <mxGeometry x="200" y="250" width="50" height="45" as="geometry" />
        </mxCell>
        <mxCell id="9UE20e8sKSjLi7E5Lzt2-2" value="server" style="aspect=fixed;perimeter=ellipsePerimeter;html=1;align=center;shadow=0;dashed=0;spacingTop=3;image;image=img/lib/active_directory/home_page.svg;" parent="1" vertex="1">
          <mxGeometry x="630" y="258.25" width="50" height="45" as="geometry" />
        </mxCell>
        <mxCell id="gZS4Kgl0HZ_WoU3pO090-1" value="message" style="aspect=fixed;perimeter=ellipsePerimeter;html=1;align=center;shadow=0;dashed=0;spacingTop=3;image;image=img/lib/active_directory/modem.svg;" vertex="1" parent="1">
          <mxGeometry x="340" y="260" width="50" height="41.5" as="geometry" />
        </mxCell>
        <mxCell id="gZS4Kgl0HZ_WoU3pO090-2" value="message" style="aspect=fixed;perimeter=ellipsePerimeter;html=1;align=center;shadow=0;dashed=0;spacingTop=3;image;image=img/lib/active_directory/modem.svg;" vertex="1" parent="1">
          <mxGeometry x="490" y="260" width="50" height="41.5" as="geometry" />
        </mxCell>
        <mxCell id="gZS4Kgl0HZ_WoU3pO090-6" value="channel" style="text;html=1;strokeColor=none;fillColor=none;align=center;verticalAlign=middle;whiteSpace=wrap;rounded=0;" vertex="1" parent="1">
          <mxGeometry x="335" y="230" width="60" height="30" as="geometry" />
        </mxCell>
        <mxCell id="gZS4Kgl0HZ_WoU3pO090-7" value="channel" style="text;html=1;strokeColor=none;fillColor=none;align=center;verticalAlign=middle;whiteSpace=wrap;rounded=0;" vertex="1" parent="1">
          <mxGeometry x="485" y="230" width="60" height="30" as="geometry" />
        </mxCell>
        <mxCell id="gZS4Kgl0HZ_WoU3pO090-8" value="" style="endArrow=classic;html=1;rounded=0;" edge="1" parent="1">
          <mxGeometry width="50" height="50" relative="1" as="geometry">
            <mxPoint x="250" y="264" as="sourcePoint" />
            <mxPoint x="330" y="264" as="targetPoint" />
          </mxGeometry>
        </mxCell>
        <mxCell id="gZS4Kgl0HZ_WoU3pO090-9" value="" style="endArrow=classic;html=1;rounded=0;" edge="1" parent="1">
          <mxGeometry width="50" height="50" relative="1" as="geometry">
            <mxPoint x="405" y="266" as="sourcePoint" />
            <mxPoint x="485" y="266" as="targetPoint" />
          </mxGeometry>
        </mxCell>
        <mxCell id="gZS4Kgl0HZ_WoU3pO090-10" value="" style="endArrow=classic;html=1;rounded=0;" edge="1" parent="1">
          <mxGeometry width="50" height="50" relative="1" as="geometry">
            <mxPoint x="545" y="267" as="sourcePoint" />
            <mxPoint x="625" y="267" as="targetPoint" />
          </mxGeometry>
        </mxCell>
        <mxCell id="gZS4Kgl0HZ_WoU3pO090-11" value="" style="endArrow=classic;html=1;rounded=0;" edge="1" parent="1">
          <mxGeometry width="50" height="50" relative="1" as="geometry">
            <mxPoint x="625" y="290.25" as="sourcePoint" />
            <mxPoint x="545" y="290.25" as="targetPoint" />
          </mxGeometry>
        </mxCell>
        <mxCell id="gZS4Kgl0HZ_WoU3pO090-12" value="" style="endArrow=classic;html=1;rounded=0;" edge="1" parent="1">
          <mxGeometry width="50" height="50" relative="1" as="geometry">
            <mxPoint x="485" y="290" as="sourcePoint" />
            <mxPoint x="405" y="290" as="targetPoint" />
          </mxGeometry>
        </mxCell>
        <mxCell id="gZS4Kgl0HZ_WoU3pO090-13" value="" style="endArrow=classic;html=1;rounded=0;" edge="1" parent="1">
          <mxGeometry width="50" height="50" relative="1" as="geometry">
            <mxPoint x="330" y="288" as="sourcePoint" />
            <mxPoint x="250" y="288" as="targetPoint" />
          </mxGeometry>
        </mxCell>
        <mxCell id="gZS4Kgl0HZ_WoU3pO090-16" value="post" style="text;html=1;strokeColor=none;fillColor=none;align=center;verticalAlign=middle;whiteSpace=wrap;rounded=0;" vertex="1" parent="1">
          <mxGeometry x="260" y="236" width="60" height="30" as="geometry" />
        </mxCell>
        <mxCell id="gZS4Kgl0HZ_WoU3pO090-17" value="post" style="text;html=1;strokeColor=none;fillColor=none;align=center;verticalAlign=middle;whiteSpace=wrap;rounded=0;" vertex="1" parent="1">
          <mxGeometry x="414" y="236" width="60" height="30" as="geometry" />
        </mxCell>
        <mxCell id="gZS4Kgl0HZ_WoU3pO090-19" value="listen" style="text;html=1;strokeColor=none;fillColor=none;align=center;verticalAlign=middle;whiteSpace=wrap;rounded=0;" vertex="1" parent="1">
          <mxGeometry x="560" y="236" width="60" height="30" as="geometry" />
        </mxCell>
        <mxCell id="gZS4Kgl0HZ_WoU3pO090-20" value="listen" style="text;html=1;strokeColor=none;fillColor=none;align=center;verticalAlign=middle;whiteSpace=wrap;rounded=0;" vertex="1" parent="1">
          <mxGeometry x="260" y="288" width="60" height="30" as="geometry" />
        </mxCell>
        <mxCell id="gZS4Kgl0HZ_WoU3pO090-21" value="post" style="text;html=1;strokeColor=none;fillColor=none;align=center;verticalAlign=middle;whiteSpace=wrap;rounded=0;" vertex="1" parent="1">
          <mxGeometry x="413.5" y="290" width="60" height="30" as="geometry" />
        </mxCell>
        <mxCell id="gZS4Kgl0HZ_WoU3pO090-22" value="post" style="text;html=1;strokeColor=none;fillColor=none;align=center;verticalAlign=middle;whiteSpace=wrap;rounded=0;" vertex="1" parent="1">
          <mxGeometry x="560" y="288" width="60" height="30" as="geometry" />
        </mxCell>
      </root>
    </mxGraphModel>
  </diagram>
</mxfile>
